# xmcd
#
# Track frame offsets:
#	150
#	23680
#	44125
#	65303
#	88835
#	114690
#
# Disc length: 1797 seconds
#
# Revision: 1
# Processed by: cddbd v1.5.1PL0 Copyright (c) Steve Scherf et al.
# Submitted via: CDex 1.50Beta5
#
DISCID=4e070306
DTITLE=佐々木史郎 - Move On
DYEAR=2001
DGENRE=Jazz
TTITLE0=Groove Society
TTITLE1=Away East
TTITLE2=Feel Like Makin’ Love
TTITLE3=Walk on The Avenue
TTITLE4=Rainy Day
TTITLE5=Summer Knows,The
EXTD=
EXTT0=
EXTT1=
EXTT2=
EXTT3=
EXTT4=
EXTT5=
PLAYORDER=
